<svg width="555" height="501" viewBox="0 0 555 501" fill="none" xmlns="http://www.w3.org/2000/svg">
<g clip-path="url(#clip0_536_335)">
<path d="M69.4884 310.599C69.7412 311.467 69.994 312.334 70.2536 313.195L59.9843 316.29L56.2332 317.418H56.2263L42.1171 321.668C41.6456 320.11 41.1947 318.538 40.7574 316.974C38.8237 310.066 37.2044 303.076 35.8857 296.018C38.6871 300.514 43.668 303.507 49.3391 303.507C56.9438 303.507 63.3117 298.122 64.8285 290.962C66.0789 297.583 67.6299 304.135 69.4884 310.599Z" fill="black"/>
<path d="M469.01 121.275L447.733 117.052L396.892 106.974L417.889 85.9777C378.793 52.6279 328.99 34.2756 277.513 34.2756C160.41 34.2756 64.733 127.759 61.1938 244.022C61.1254 246.236 61.0913 248.463 61.0913 250.698C61.0913 252.932 61.1186 254.906 61.1801 256.806C61.2074 257.721 61.2348 258.637 61.2758 259.553C61.5422 266.31 62.1298 273.033 63.0249 279.702C60.2782 274.994 55.1743 271.824 49.3392 271.824C41.8849 271.824 35.6194 276.996 33.9454 283.945C32.9889 276.853 32.3398 269.713 31.9981 262.538C31.9162 260.919 31.8615 259.3 31.8137 257.674C31.7453 255.515 31.7112 253.219 31.7112 250.698C31.7112 249.133 31.7248 247.568 31.759 246.004C32.3398 214.485 38.8171 183.895 51.0337 155.014C63.4144 125.743 81.1381 99.4584 103.706 76.8904C126.274 54.3224 152.559 36.5987 181.83 24.218C212.146 11.3933 244.334 4.89551 277.513 4.89551C336.39 4.89551 393.346 26.0355 437.901 64.4278C438.175 64.6669 438.448 64.8992 438.721 65.1452L459.643 44.2307L465.491 92.3389L469.01 121.275Z" fill="black"/>
<path d="M484.739 188.111C484.479 187.257 484.213 186.396 483.946 185.542L493.983 182.379C493.983 182.379 494.024 182.365 494.045 182.351L497.953 181.122L511.96 176.701C512.452 178.252 512.923 179.81 513.388 181.374C515.41 188.262 517.125 195.245 518.533 202.289C515.724 197.882 510.784 194.951 505.175 194.951C497.516 194.951 491.107 200.417 489.651 207.653C488.312 201.066 486.679 194.541 484.739 188.111Z" fill="black"/>
<path d="M523.308 250.698C523.308 251.204 523.308 251.716 523.302 252.222C523.11 284.861 516.613 316.53 503.986 346.381C491.605 375.652 473.882 401.937 451.314 424.505C428.746 447.073 402.461 464.797 373.19 477.177C342.88 490.002 310.685 496.5 277.513 496.5C216.553 496.5 158.093 474.028 112.889 433.224C112.588 432.95 112.288 432.677 111.987 432.397L92.521 450.64L84.6909 403.146L80.6733 378.809H85.1418L105.421 381.938L157.267 389.953L133.496 412.234C173.159 447.64 224.253 467.12 277.513 467.12C395.546 467.12 491.81 372.14 493.887 254.586C493.915 253.294 493.928 251.996 493.928 250.698C493.928 247.767 493.867 244.76 493.744 241.754C493.71 240.852 493.662 239.957 493.614 239.055C493.259 232.318 492.596 225.616 491.619 218.967C494.393 223.559 499.429 226.634 505.175 226.634C512.711 226.634 519.031 221.345 520.623 214.287C521.675 221.372 522.42 228.519 522.851 235.694C522.953 237.313 523.028 238.932 523.097 240.558C523.24 243.954 523.308 247.37 523.308 250.698Z" fill="black"/>
<path d="M334.613 250.698C334.613 282.285 309.012 307.893 277.425 307.893C245.838 307.893 220.229 282.285 220.229 250.698C220.229 219.111 245.838 193.502 277.425 193.502C309.012 193.502 334.613 219.111 334.613 250.698Z" fill="#79FFB7"/>
<path d="M438.144 276.051L441.587 275.567V272.09V228.608V225.068L438.073 224.637L404.776 220.56C401.481 206.59 395.945 193.493 388.576 181.658L409.402 154.453L411.553 151.642L409.025 149.165L377.971 118.732L375.488 116.299L372.732 118.419L345.786 139.151C334.281 132.096 321.596 126.77 308.1 123.537L303.414 90.2036L302.93 86.7605H299.453H255.97H252.431L252 90.2736L247.952 123.284C234.183 126.466 221.244 131.822 209.52 138.972L182.807 118.419L180.052 116.299L177.568 118.732L146.507 149.164L143.978 151.642L146.131 154.453L166.676 181.281C159.169 193.24 153.542 206.501 150.217 220.653L116.869 225.344L113.426 225.828V229.305V272.787V276.327L116.94 276.758L150.238 280.836C153.538 294.811 159.075 307.922 166.457 319.765L146.131 346.313L143.979 349.125L146.507 351.602L177.568 382.035L180.052 384.468L182.807 382.348L209.067 362.143C220.935 369.443 234.054 374.905 248.034 378.126L252 410.493L252.431 414.006H255.97H299.453H302.93L303.414 410.563L308.011 377.88C321.717 374.602 334.583 369.176 346.233 361.964L372.733 382.348L375.488 384.468L377.971 382.034L409.025 351.602L411.554 349.124L409.401 346.313L388.789 319.394C396.07 307.62 401.539 294.609 404.797 280.742L438.144 276.051ZM277.425 321.979C238.05 321.979 206.136 290.064 206.136 250.698C206.136 211.33 238.051 179.409 277.425 179.409C316.798 179.409 348.706 211.33 348.706 250.698C348.706 290.065 316.792 321.979 277.425 321.979Z" fill="black" stroke="#79FFB7" stroke-width="8"/>
<path d="M334.613 250.698C334.613 282.285 309.012 307.893 277.425 307.893C245.838 307.893 220.229 282.285 220.229 250.698C220.229 219.111 245.838 193.502 277.425 193.502C309.012 193.502 334.613 219.111 334.613 250.698Z" fill="#79FFB7"/>
<path d="M341.25 250.698C341.25 285.951 312.678 314.531 277.425 314.531C242.172 314.531 213.592 285.951 213.592 250.698C213.592 215.445 242.172 186.865 277.425 186.865C312.678 186.865 341.25 215.445 341.25 250.698Z" fill="black" stroke="black" stroke-width="8.1991" stroke-miterlimit="10"/>
<path d="M271.009 283.897L238.335 251.224L250.415 239.144L271.009 259.737L304.557 226.189L316.63 238.269L271.009 283.897Z" fill="#79FFB7"/>
<path d="M85.142 378.808H80.6735L80.5574 378.098L85.142 378.808Z" fill="#3A74FF"/>
<path d="M69.4884 310.599C69.7412 311.467 69.994 312.334 70.2536 313.195L59.9843 316.29L56.2332 317.418H56.2263L42.1171 321.668C41.6456 320.11 41.1947 318.538 40.7574 316.974C38.8237 310.066 37.2044 303.076 35.8857 296.018C38.6871 300.514 43.668 303.507 49.3391 303.507C56.9438 303.507 63.3117 298.122 64.8285 290.962C66.0789 297.583 67.6299 304.135 69.4884 310.599Z" stroke="#79FFB7" stroke-width="4.09955" stroke-miterlimit="10"/>
<path d="M469.01 121.275L447.733 117.052L396.892 106.974L417.889 85.9777C378.793 52.6279 328.99 34.2756 277.513 34.2756C160.41 34.2756 64.733 127.759 61.1938 244.022C61.1254 246.236 61.0913 248.463 61.0913 250.698C61.0913 252.932 61.1186 254.906 61.1801 256.806C61.2074 257.721 61.2348 258.637 61.2758 259.553C61.5422 266.31 62.1298 273.033 63.0249 279.702C60.2782 274.994 55.1743 271.824 49.3392 271.824C41.8849 271.824 35.6194 276.996 33.9454 283.945C32.9889 276.853 32.3398 269.713 31.9981 262.538C31.9162 260.919 31.8615 259.3 31.8137 257.674C31.7453 255.515 31.7112 253.219 31.7112 250.698C31.7112 249.133 31.7248 247.568 31.759 246.004C32.3398 214.485 38.8171 183.895 51.0337 155.014C63.4144 125.743 81.1381 99.4584 103.706 76.8904C126.274 54.3224 152.559 36.5987 181.83 24.218C212.146 11.3933 244.334 4.89551 277.513 4.89551C336.39 4.89551 393.346 26.0355 437.901 64.4278C438.175 64.6669 438.448 64.8992 438.721 65.1452L459.643 44.2307L465.491 92.3389L469.01 121.275Z" stroke="#79FFB7" stroke-width="8.1991" stroke-linejoin="round"/>
<path d="M484.739 188.111C484.479 187.257 484.213 186.396 483.946 185.542L493.983 182.379C493.983 182.379 494.024 182.365 494.045 182.351L497.953 181.122L511.96 176.701C512.452 178.252 512.923 179.81 513.388 181.374C515.41 188.262 517.125 195.245 518.533 202.289C515.724 197.882 510.784 194.951 505.175 194.951C497.516 194.951 491.107 200.417 489.651 207.653C488.312 201.066 486.679 194.541 484.739 188.111Z" stroke="#79FFB7" stroke-width="4.09955" stroke-miterlimit="10"/>
<path d="M523.308 250.698C523.308 251.204 523.308 251.716 523.302 252.222C523.11 284.861 516.613 316.53 503.986 346.381C491.605 375.652 473.882 401.937 451.314 424.505C428.746 447.073 402.461 464.797 373.19 477.177C342.88 490.002 310.685 496.5 277.513 496.5C216.553 496.5 158.093 474.028 112.889 433.224C112.588 432.95 112.288 432.677 111.987 432.397L92.521 450.64L84.6909 403.146L80.6733 378.809H85.1418L105.421 381.938L157.267 389.953L133.496 412.234C173.159 447.64 224.253 467.12 277.513 467.12C395.546 467.12 491.81 372.14 493.887 254.586C493.915 253.294 493.928 251.996 493.928 250.698C493.928 247.767 493.867 244.76 493.744 241.754C493.71 240.852 493.662 239.957 493.614 239.055C493.259 232.318 492.596 225.616 491.619 218.967C494.393 223.559 499.429 226.634 505.175 226.634C512.711 226.634 519.031 221.345 520.623 214.287C521.675 221.372 522.42 228.519 522.851 235.694C522.953 237.313 523.028 238.932 523.097 240.558C523.24 243.954 523.308 247.37 523.308 250.698Z" stroke="#79FFB7" stroke-width="8.1991" stroke-linejoin="round"/>
<path d="M61.2758 259.553C57.6135 257.995 53.5755 257.134 49.3392 257.134C42.8961 257.134 36.9176 259.129 31.9982 262.539C24.0314 268.046 18.8113 277.249 18.8113 287.662C18.8113 301.546 28.0763 313.264 40.7575 316.974C43.4769 317.773 46.3602 318.197 49.3392 318.197C51.7102 318.197 54.0127 317.931 56.2265 317.418H56.2333C57.5178 317.117 58.7682 316.742 59.9844 316.291C63.51 314.979 66.7213 313.038 69.4885 310.599C75.8497 305.003 79.8672 296.804 79.8672 287.662C79.8672 275.042 72.2079 264.206 61.2758 259.553ZM49.3392 303.507C43.6682 303.507 38.6873 300.514 35.8859 296.018C35.1411 292.015 34.4989 287.983 33.9454 283.945C35.6194 276.997 41.8849 271.824 49.3392 271.824C55.1743 271.824 60.2782 274.995 63.0249 279.702C63.5305 283.474 64.1318 287.232 64.8287 290.962C63.3119 298.123 56.9439 303.507 49.3392 303.507Z" fill="#79FFB7"/>
<path d="M61.1939 244.022C57.4155 242.991 53.4389 242.444 49.3394 242.444C43.108 242.444 37.1637 243.708 31.7591 246.004C15.5386 252.871 4.12134 268.961 4.12134 287.662C4.12134 312.601 24.4073 332.887 49.3394 332.887C74.2714 332.887 94.5574 312.601 94.5574 287.662C94.5574 266.83 80.3934 249.243 61.1939 244.022ZM35.886 296.018C34.376 293.593 33.5014 290.73 33.5014 287.662C33.5014 286.384 33.6518 285.141 33.9456 283.945C35.6195 276.996 41.885 271.824 49.3394 271.824C55.1744 271.824 60.2783 274.995 63.025 279.702C64.3915 282.039 65.1773 284.765 65.1773 287.662C65.1773 288.796 65.0611 289.896 64.8288 290.962C63.312 298.123 56.944 303.507 49.3394 303.507C43.6683 303.507 38.6874 300.514 35.886 296.018Z" fill="black"/>
<path d="M513.388 181.374C510.778 180.65 508.024 180.261 505.175 180.261C502.688 180.261 500.269 180.561 497.953 181.122C496.614 181.443 495.309 181.86 494.045 182.352C494.024 182.365 494.004 182.372 493.983 182.379C490.553 183.732 487.431 185.686 484.739 188.111C478.542 193.7 474.647 201.79 474.647 210.789C474.647 223.559 482.484 234.498 493.614 239.055C497.181 240.517 501.082 241.324 505.175 241.324C511.762 241.324 517.863 239.24 522.851 235.693C530.633 230.152 535.71 221.065 535.71 210.789C535.71 196.775 526.26 184.968 513.388 181.374ZM505.175 226.633C499.429 226.633 494.393 223.559 491.619 218.967C491.059 215.175 490.403 211.404 489.652 207.659C491.107 200.417 497.516 194.951 505.175 194.951C510.785 194.951 515.725 197.882 518.533 202.289C519.332 206.266 520.029 210.269 520.624 214.28C519.032 221.345 512.712 226.633 505.175 226.633Z" fill="#79FFB7"/>
<path d="M505.175 165.571C480.243 165.571 459.957 185.856 459.957 210.789C459.957 231.833 474.401 249.563 493.888 254.585C497.502 255.521 501.28 256.013 505.175 256.013C511.618 256.013 517.754 254.661 523.302 252.221C539.242 245.225 550.4 229.284 550.4 210.789C550.4 185.856 530.114 165.571 505.175 165.571ZM520.624 214.28C519.032 221.345 512.711 226.633 505.175 226.633C499.429 226.633 494.393 223.559 491.619 218.967C490.171 216.569 489.337 213.774 489.337 210.789C489.337 209.716 489.446 208.677 489.651 207.659C491.107 200.417 497.516 194.951 505.175 194.951C510.785 194.951 515.725 197.882 518.533 202.289C520.111 204.749 521.02 207.666 521.02 210.789C521.02 211.991 520.883 213.153 520.624 214.28Z" fill="black"/>
<path d="M61.1939 244.022C57.4155 242.991 53.4389 242.444 49.3394 242.444C43.108 242.444 37.1637 243.708 31.7591 246.004C15.5386 252.871 4.12134 268.961 4.12134 287.662C4.12134 312.601 24.4073 332.887 49.3394 332.887C74.2714 332.887 94.5574 312.601 94.5574 287.662C94.5574 266.83 80.3934 249.243 61.1939 244.022ZM35.886 296.018C34.376 293.593 33.5014 290.73 33.5014 287.662C33.5014 286.384 33.6518 285.141 33.9456 283.945C35.6195 276.996 41.885 271.824 49.3394 271.824C55.1744 271.824 60.2783 274.995 63.025 279.702C64.3915 282.039 65.1773 284.765 65.1773 287.662C65.1773 288.796 65.0611 289.896 64.8288 290.962C63.312 298.123 56.944 303.507 49.3394 303.507C43.6683 303.507 38.6874 300.514 35.886 296.018Z" stroke="#79FFB7" stroke-width="8.1991" stroke-miterlimit="10"/>
<path d="M505.175 165.571C480.243 165.571 459.957 185.856 459.957 210.789C459.957 231.833 474.401 249.563 493.888 254.585C497.502 255.521 501.28 256.013 505.175 256.013C511.618 256.013 517.754 254.661 523.302 252.221C539.242 245.225 550.4 229.284 550.4 210.789C550.4 185.856 530.114 165.571 505.175 165.571ZM520.624 214.28C519.032 221.345 512.711 226.633 505.175 226.633C499.429 226.633 494.393 223.559 491.619 218.967C490.171 216.569 489.337 213.774 489.337 210.789C489.337 209.716 489.446 208.677 489.651 207.659C491.107 200.417 497.516 194.951 505.175 194.951C510.785 194.951 515.725 197.882 518.533 202.289C520.111 204.749 521.02 207.666 521.02 210.789C521.02 211.991 520.883 213.153 520.624 214.28Z" stroke="#79FFB7" stroke-width="8.1991" stroke-miterlimit="10"/>
</g>
<defs>
<clipPath id="clip0_536_335">
<rect width="554.478" height="499.803" fill="white" transform="translate(0.0217285 0.795898)"/>
</clipPath>
</defs>
</svg>
