<svg width="645" height="582" viewBox="0 0 645 582" fill="none" xmlns="http://www.w3.org/2000/svg">
<g clip-path="url(#clip0_524_280)">
<path d="M80.7392 360.26C81.033 361.268 81.3267 362.276 81.6284 363.276L69.6958 366.873L65.3372 368.183H65.3293L48.9349 373.121C48.3871 371.311 47.8631 369.485 47.355 367.667C45.1082 359.64 43.2266 351.519 41.6943 343.317C44.9494 348.541 50.7371 352.019 57.3266 352.019C66.1629 352.019 73.5622 345.763 75.3247 337.442C76.7776 345.135 78.5797 352.749 80.7392 360.26Z" fill="#79FFB7"/>
<path d="M544.967 140.273L520.244 135.366L461.169 123.656L485.566 99.2591C440.138 60.508 382.269 39.1834 322.455 39.1834C186.386 39.1834 75.2135 147.807 71.101 282.9C71.0217 285.472 70.982 288.061 70.982 290.657C70.982 293.253 71.0137 295.547 71.0852 297.754C71.1169 298.818 71.1487 299.882 71.1963 300.946C71.5059 308.798 72.1887 316.61 73.2287 324.359C70.0372 318.888 64.1066 315.205 57.3266 315.205C48.6649 315.205 41.3847 321.215 39.4396 329.289C38.3281 321.048 37.5739 312.751 37.1769 304.415C37.0817 302.534 37.0182 300.652 36.9626 298.763C36.8832 296.254 36.8435 293.586 36.8435 290.657C36.8435 288.839 36.8594 287.021 36.8991 285.203C37.5739 248.579 45.1003 213.035 59.2955 179.477C73.6813 145.465 94.2755 114.923 120.499 88.7C146.722 62.4769 177.264 41.8827 211.275 27.4969C246.501 12.5951 283.903 5.04492 322.455 5.04492C390.867 5.04492 457.048 29.6087 508.82 74.219C509.137 74.4968 509.455 74.7668 509.772 75.0526L534.082 50.7508L540.878 106.65L544.967 140.273Z" fill="#79FFB7"/>
<path d="M563.243 217.934C562.941 216.942 562.631 215.941 562.322 214.949L573.984 211.273C573.984 211.273 574.032 211.257 574.056 211.241L578.597 209.812L594.872 204.676C595.444 206.478 595.992 208.288 596.532 210.106C598.882 218.109 600.874 226.222 602.51 234.408C599.247 229.287 593.507 225.881 586.989 225.881C578.089 225.881 570.642 232.232 568.951 240.64C567.395 232.987 565.497 225.405 563.243 217.934Z" fill="#79FFB7"/>
<path d="M608.059 290.657C608.059 291.244 608.059 291.84 608.051 292.427C607.829 330.353 600.279 367.151 585.607 401.837C571.222 435.849 550.627 466.391 524.404 492.614C498.181 518.837 467.639 539.431 433.628 553.817C398.409 568.719 361 576.269 322.455 576.269C251.622 576.269 183.694 550.157 131.169 502.744C130.819 502.427 130.47 502.109 130.121 501.783L107.502 522.981L98.4038 467.796L93.7356 439.517H98.9278L122.491 443.153L182.734 452.465L155.113 478.355C201.2 519.496 260.569 542.13 322.455 542.13C459.605 542.13 571.46 431.768 573.873 295.174C573.905 293.674 573.921 292.165 573.921 290.657C573.921 287.251 573.849 283.758 573.706 280.265C573.667 279.217 573.611 278.177 573.556 277.129C573.143 269.301 572.373 261.512 571.237 253.787C574.461 259.123 580.312 262.695 586.989 262.695C595.746 262.695 603.089 256.55 604.939 248.349C606.162 256.582 607.027 264.886 607.527 273.223C607.646 275.104 607.734 276.986 607.813 278.875C607.98 282.821 608.059 286.791 608.059 290.657Z" fill="#79FFB7"/>
<path d="M388.803 290.657C388.803 327.36 359.055 357.116 322.352 357.116C285.65 357.116 255.894 327.36 255.894 290.657C255.894 253.954 285.65 224.198 322.352 224.198C359.055 224.198 388.803 253.954 388.803 290.657Z" fill="black"/>
<path d="M508.455 315.514V264.989L466.512 259.853C462.685 241.862 455.572 225.095 445.838 210.193L472.014 175.999L435.93 140.638L402.054 166.702C387.533 157.358 371.258 150.498 353.839 146.719L347.948 104.816H297.423L292.318 146.442C274.559 150.133 257.966 157.024 243.175 166.488L209.576 140.638L173.485 175.999L199.343 209.764C189.451 224.785 182.234 241.72 178.375 259.9L136.441 265.799V316.324L178.383 321.461C182.218 339.459 189.331 356.242 199.081 371.152L173.485 404.584L209.576 439.945L242.659 414.492C257.608 424.138 274.408 431.156 292.414 434.888L297.423 475.766H347.948L353.736 434.618C371.401 430.791 387.882 423.813 402.562 414.278L435.93 439.945L472.014 404.584L446.092 370.731C455.707 355.909 462.733 339.26 466.52 321.413L508.455 315.514ZM322.352 378.13C274.035 378.13 234.871 338.967 234.871 290.657C234.871 242.347 274.035 203.175 322.352 203.175C370.67 203.175 409.826 242.347 409.826 290.657C409.826 338.967 370.662 378.13 322.352 378.13Z" fill="white"/>
<path d="M388.803 290.657C388.803 327.36 359.055 357.116 322.352 357.116C285.65 357.116 255.894 327.36 255.894 290.657C255.894 253.954 285.65 224.198 322.352 224.198C359.055 224.198 388.803 253.954 388.803 290.657Z" fill="white"/>
<path d="M388.803 290.657C388.803 327.36 359.055 357.116 322.352 357.116C285.65 357.116 255.894 327.36 255.894 290.657C255.894 253.954 285.65 224.198 322.352 224.198C359.055 224.198 388.803 253.954 388.803 290.657Z" fill="#79FFB7" stroke="#79FFB7" stroke-width="9.52701" stroke-miterlimit="10"/>
<path d="M314.897 329.233L276.932 291.268L290.969 277.232L314.897 301.16L353.879 262.179L367.907 276.215L314.897 329.233Z" fill="black"/>
<path d="M98.928 439.517H93.7358L93.6008 438.691L98.928 439.517Z" fill="#3A74FF"/>
<path d="M80.7392 360.26C81.033 361.268 81.3267 362.276 81.6284 363.276L69.6958 366.873L65.3372 368.183H65.3293L48.9349 373.121C48.3871 371.311 47.8631 369.485 47.355 367.667C45.1082 359.64 43.2266 351.519 41.6943 343.317C44.9494 348.541 50.7371 352.019 57.3266 352.019C66.1629 352.019 73.5622 345.763 75.3247 337.442C76.7776 345.135 78.5797 352.749 80.7392 360.26Z" stroke="black" stroke-width="4.76351" stroke-miterlimit="10"/>
<path d="M544.967 140.273L520.244 135.366L461.169 123.656L485.566 99.2591C440.138 60.508 382.269 39.1834 322.455 39.1834C186.386 39.1834 75.2135 147.807 71.101 282.9C71.0217 285.472 70.982 288.061 70.982 290.657C70.982 293.253 71.0137 295.547 71.0852 297.754C71.1169 298.818 71.1487 299.882 71.1963 300.946C71.5059 308.798 72.1887 316.61 73.2287 324.359C70.0372 318.888 64.1066 315.205 57.3266 315.205C48.6649 315.205 41.3847 321.215 39.4396 329.289C38.3281 321.048 37.5739 312.751 37.1769 304.415C37.0817 302.534 37.0182 300.652 36.9626 298.763C36.8832 296.254 36.8435 293.586 36.8435 290.657C36.8435 288.839 36.8594 287.021 36.8991 285.203C37.5739 248.579 45.1003 213.035 59.2955 179.477C73.6813 145.465 94.2755 114.923 120.499 88.7C146.722 62.4769 177.264 41.8827 211.275 27.4969C246.501 12.5951 283.903 5.04492 322.455 5.04492C390.867 5.04492 457.048 29.6087 508.82 74.219C509.137 74.4968 509.455 74.7668 509.772 75.0526L534.082 50.7508L540.878 106.65L544.967 140.273Z" stroke="black" stroke-width="9.52701" stroke-linejoin="round"/>
<path d="M563.243 217.934C562.941 216.942 562.631 215.941 562.322 214.949L573.984 211.273C573.984 211.273 574.032 211.257 574.056 211.241L578.597 209.812L594.872 204.676C595.444 206.478 595.992 208.288 596.532 210.106C598.882 218.109 600.874 226.222 602.51 234.408C599.247 229.287 593.507 225.881 586.989 225.881C578.089 225.881 570.642 232.232 568.951 240.64C567.395 232.987 565.497 225.405 563.243 217.934Z" stroke="black" stroke-width="4.76351" stroke-miterlimit="10"/>
<path d="M608.059 290.657C608.059 291.244 608.059 291.84 608.051 292.427C607.829 330.353 600.279 367.151 585.607 401.837C571.222 435.849 550.627 466.391 524.404 492.614C498.181 518.837 467.639 539.431 433.628 553.817C398.409 568.719 361 576.269 322.455 576.269C251.622 576.269 183.694 550.157 131.169 502.744C130.819 502.427 130.47 502.109 130.121 501.783L107.502 522.981L98.4038 467.796L93.7356 439.517H98.9278L122.491 443.153L182.734 452.465L155.113 478.355C201.2 519.496 260.569 542.13 322.455 542.13C459.605 542.13 571.46 431.768 573.873 295.174C573.905 293.674 573.921 292.165 573.921 290.657C573.921 287.251 573.849 283.758 573.706 280.265C573.667 279.217 573.611 278.177 573.556 277.129C573.143 269.301 572.373 261.512 571.237 253.787C574.461 259.123 580.312 262.695 586.989 262.695C595.746 262.695 603.089 256.55 604.939 248.349C606.162 256.582 607.027 264.886 607.527 273.223C607.646 275.104 607.734 276.986 607.813 278.875C607.98 282.821 608.059 286.791 608.059 290.657Z" stroke="black" stroke-width="9.52701" stroke-linejoin="round"/>
<path d="M71.1965 300.946C66.9411 299.136 62.249 298.136 57.3267 298.136C49.8401 298.136 42.8933 300.454 37.1771 304.416C27.92 310.815 21.8545 321.509 21.8545 333.608C21.8545 349.74 32.62 363.356 47.3551 367.667C50.5149 368.596 53.8653 369.088 57.3267 369.088C60.0816 369.088 62.7571 368.779 65.3294 368.183H65.3374C66.8299 367.834 68.2828 367.397 69.696 366.873C73.7926 365.349 77.524 363.094 80.7394 360.26C88.1307 353.758 92.799 344.231 92.799 333.608C92.799 318.944 83.8992 306.353 71.1965 300.946ZM57.3267 352.019C50.7372 352.019 44.9496 348.542 41.6945 343.318C40.8291 338.665 40.0828 333.981 39.4398 329.289C41.3849 321.215 48.6651 315.205 57.3267 315.205C64.1068 315.205 70.0374 318.889 73.2289 324.359C73.8164 328.741 74.515 333.108 75.3248 337.443C73.5623 345.763 66.163 352.019 57.3267 352.019Z" fill="white"/>
<path d="M71.1013 282.9C66.711 281.702 62.0904 281.066 57.3269 281.066C50.0863 281.066 43.1793 282.535 36.8994 285.203C18.0518 293.182 4.7854 311.878 4.7854 333.608C4.7854 362.586 28.3568 386.157 57.3269 386.157C86.2969 386.157 109.868 362.586 109.868 333.608C109.868 309.401 93.4104 288.966 71.1013 282.9ZM41.6946 343.317C39.9401 340.499 38.9239 337.173 38.9239 333.608C38.9239 332.123 39.0985 330.678 39.4399 329.289C41.385 321.215 48.6652 315.205 57.3269 315.205C64.1069 315.205 70.0375 318.889 73.229 324.359C74.8169 327.074 75.7299 330.242 75.7299 333.608C75.7299 334.926 75.5949 336.204 75.325 337.442C73.5625 345.763 66.1632 352.019 57.3269 352.019C50.7374 352.019 44.9497 348.541 41.6946 343.317Z" fill="#79FFB7"/>
<path d="M596.532 210.106C593.499 209.265 590.3 208.812 586.989 208.812C584.099 208.812 581.289 209.161 578.597 209.812C577.041 210.185 575.525 210.67 574.056 211.241C574.032 211.257 574.009 211.265 573.985 211.273C569.999 212.845 566.371 215.116 563.243 217.934C556.042 224.428 551.517 233.828 551.517 244.284C551.517 259.123 560.623 271.833 573.556 277.129C577.7 278.828 582.234 279.764 586.989 279.764C594.642 279.764 601.732 277.343 607.528 273.223C616.57 266.784 622.469 256.225 622.469 244.284C622.469 228.001 611.489 214.282 596.532 210.106ZM586.989 262.695C580.312 262.695 574.461 259.123 571.238 253.787C570.587 249.381 569.825 244.999 568.951 240.648C570.642 232.233 578.089 225.881 586.989 225.881C593.507 225.881 599.247 229.287 602.51 234.408C603.439 239.029 604.249 243.681 604.94 248.341C603.09 256.55 595.746 262.695 586.989 262.695Z" fill="white"/>
<path d="M586.989 191.743C558.019 191.743 534.448 215.314 534.448 244.284C534.448 268.737 551.231 289.339 573.873 295.174C578.073 296.262 582.464 296.834 586.989 296.834C594.476 296.834 601.605 295.262 608.052 292.427C626.574 284.298 639.538 265.775 639.538 244.284C639.538 215.314 615.967 191.743 586.989 191.743ZM604.939 248.341C603.09 256.55 595.746 262.695 586.989 262.695C580.312 262.695 574.461 259.122 571.238 253.787C569.555 251.001 568.586 247.754 568.586 244.284C568.586 243.038 568.713 241.831 568.951 240.648C570.642 232.232 578.089 225.881 586.989 225.881C593.507 225.881 599.247 229.287 602.51 234.408C604.344 237.266 605.4 240.656 605.4 244.284C605.4 245.681 605.241 247.031 604.939 248.341Z" fill="#79FFB7"/>
<path d="M71.1013 282.9C66.711 281.702 62.0904 281.066 57.3269 281.066C50.0863 281.066 43.1793 282.535 36.8994 285.203C18.0518 293.182 4.7854 311.878 4.7854 333.608C4.7854 362.586 28.3568 386.157 57.3269 386.157C86.2969 386.157 109.868 362.586 109.868 333.608C109.868 309.401 93.4104 288.966 71.1013 282.9ZM41.6946 343.317C39.9401 340.499 38.9239 337.173 38.9239 333.608C38.9239 332.123 39.0985 330.678 39.4399 329.289C41.385 321.215 48.6652 315.205 57.3269 315.205C64.1069 315.205 70.0375 318.889 73.229 324.359C74.8169 327.074 75.7299 330.242 75.7299 333.608C75.7299 334.926 75.5949 336.204 75.325 337.442C73.5625 345.763 66.1632 352.019 57.3269 352.019C50.7374 352.019 44.9497 348.541 41.6946 343.317Z" stroke="black" stroke-width="9.52701" stroke-miterlimit="10"/>
<path d="M586.989 191.743C558.019 191.743 534.448 215.314 534.448 244.284C534.448 268.737 551.231 289.339 573.873 295.174C578.073 296.262 582.464 296.834 586.989 296.834C594.476 296.834 601.605 295.262 608.052 292.427C626.574 284.298 639.538 265.775 639.538 244.284C639.538 215.314 615.967 191.743 586.989 191.743ZM604.939 248.341C603.09 256.55 595.746 262.695 586.989 262.695C580.312 262.695 574.461 259.122 571.238 253.787C569.555 251.001 568.586 247.754 568.586 244.284C568.586 243.038 568.713 241.831 568.951 240.648C570.642 232.232 578.089 225.881 586.989 225.881C593.507 225.881 599.247 229.287 602.51 234.408C604.344 237.266 605.4 240.656 605.4 244.284C605.4 245.681 605.241 247.031 604.939 248.341Z" stroke="black" stroke-width="9.52701" stroke-miterlimit="10"/>
</g>
<defs>
<clipPath id="clip0_524_280">
<rect width="644.28" height="580.751" fill="white" transform="translate(0.0217285 0.28125)"/>
</clipPath>
</defs>
</svg>
