<svg width="438" height="457" viewBox="0 0 438 457" fill="none" xmlns="http://www.w3.org/2000/svg">
<g clip-path="url(#clip0_536_336)">
<path d="M322.257 214.194C322.257 157.349 276.177 111.27 219.333 111.27C162.489 111.27 116.409 157.349 116.409 214.194C116.409 230.382 120.011 245.779 126.807 259.319C130.329 266.329 162.735 305.181 162.735 349.073H275.925C275.925 305.181 309.305 263.558 311.853 259.319C319.665 246.32 322.252 230.382 322.252 214.194H322.257Z" fill="black"/>
<path d="M284.003 357.142H154.667V349.068C154.667 315.082 133.248 283.496 124.102 270.013C121.89 266.752 120.429 264.597 119.598 262.941C112.232 248.271 108.34 231.413 108.34 214.194C108.34 184.545 119.888 156.671 140.851 135.707C161.815 114.744 189.689 103.197 219.337 103.197C248.986 103.197 276.86 114.744 297.824 135.707C318.787 156.671 330.335 184.545 330.335 214.194C330.335 234.422 326.557 250.544 318.783 263.477C318.346 264.203 317.729 265.077 316.604 266.657C294.976 297.094 284.013 324.821 284.013 349.068V357.142H284.003ZM170.481 341H268.189C269.466 325.409 274.387 308.736 282.874 291.318C290.738 275.167 299.632 262.651 303.429 257.307C304.055 256.424 304.767 255.423 304.948 255.134C311.156 244.806 314.179 231.403 314.179 214.194C314.179 161.892 271.63 119.343 219.328 119.343C167.026 119.343 124.477 161.892 124.477 214.194C124.477 228.911 127.776 243.264 134.022 255.698C134.382 256.415 136.02 258.826 137.458 260.952C146.741 274.64 167.61 305.418 170.476 341H170.481Z" fill="#79FFB7"/>
<path d="M274.387 366.914H164.287C159.372 366.914 155.388 370.897 155.388 375.81C155.388 380.724 159.372 384.707 164.287 384.707H274.387C279.302 384.707 283.286 380.724 283.286 375.81C283.286 370.897 279.302 366.914 274.387 366.914Z" fill="#79FFB7"/>
<path d="M274.387 394.156H164.287C159.372 394.156 155.388 398.139 155.388 403.053C155.388 407.966 159.372 411.949 164.287 411.949H274.387C279.302 411.949 283.286 407.966 283.286 403.053C283.286 398.139 279.302 394.156 274.387 394.156Z" fill="#79FFB7"/>
<path d="M219.332 456.031C244.211 456.031 264.382 441.119 264.382 422.728H174.287C174.287 441.119 194.453 456.031 219.337 456.031H219.332Z" fill="#79FFB7"/>
<path d="M215.294 74.6107C211.81 74.6107 208.986 71.7868 208.986 68.3031V7.25874C208.986 3.7751 211.81 0.951172 215.294 0.951172C218.778 0.951172 221.601 3.7751 221.601 7.25874V68.3079C221.601 71.7915 218.778 74.6154 215.294 74.6154V74.6107Z" fill="#79FFB7"/>
<path d="M143.352 96.0535C140.333 97.7954 136.48 96.7607 134.738 93.7469L104.216 40.8801C102.474 37.8616 103.508 34.0077 106.522 32.2659C109.541 30.5241 113.395 31.5587 115.136 34.5725L145.659 87.4394C147.4 90.4579 146.366 94.3117 143.352 96.0535Z" fill="#79FFB7"/>
<path d="M91.7714 150.591C90.0295 153.61 86.171 154.639 83.1572 152.898L30.2903 122.375C27.2718 120.634 26.2419 116.775 27.9837 113.761C29.7256 110.743 33.5841 109.713 36.5979 111.455L89.4648 141.977C92.4833 143.719 93.5132 147.577 91.7714 150.591Z" fill="#79FFB7"/>
<path d="M74.3675 223.614C74.3675 227.098 71.5436 229.922 68.06 229.922H7.01558C3.53194 229.922 0.708008 227.098 0.708008 223.614C0.708008 220.131 3.53194 217.307 7.01558 217.307H68.0647C71.5483 217.307 74.3723 220.131 74.3723 223.614H74.3675Z" fill="#79FFB7"/>
<path d="M95.8104 295.561C97.5522 298.579 96.5175 302.433 93.5038 304.175L40.6369 334.697C37.6184 336.439 33.7646 335.404 32.0227 332.391C30.2809 329.372 31.3156 325.518 34.3293 323.776L87.1962 293.254C90.2147 291.512 94.0686 292.547 95.8104 295.561Z" fill="#79FFB7"/>
<path d="M346.898 288.56C348.64 285.542 352.498 284.512 355.512 286.254L408.379 316.776C411.397 318.518 412.427 322.376 410.685 325.39C408.944 328.409 405.085 329.439 402.071 327.697L349.204 297.175C346.186 295.433 345.156 291.574 346.898 288.56Z" fill="#79FFB7"/>
<path d="M364.302 215.537C364.302 212.053 367.126 209.229 370.61 209.229H431.659C435.143 209.229 437.966 212.053 437.966 215.537C437.966 219.02 435.143 221.844 431.659 221.844H370.61C367.126 221.844 364.302 219.02 364.302 215.537Z" fill="#79FFB7"/>
<path d="M342.859 143.595C341.117 140.577 342.152 136.723 345.166 134.981L398.033 104.459C401.051 102.717 404.905 103.752 406.647 106.766C408.389 109.784 407.354 113.638 404.34 115.38L351.473 145.902C348.455 147.644 344.601 146.609 342.859 143.595Z" fill="#79FFB7"/>
<path d="M288.317 92.0145C285.298 90.2727 284.268 86.4141 286.01 83.4003L316.532 30.5335C318.274 27.515 322.133 26.4851 325.146 28.2269C328.165 29.9687 329.195 33.8273 327.453 36.8411L296.931 89.7079C295.189 92.7264 291.33 93.7563 288.317 92.0145Z" fill="#79FFB7"/>
<path d="M150.371 210.81C146.475 210.81 143.314 207.639 143.309 203.743C143.309 203.14 143.38 188.793 151.05 173.235C158.198 158.74 173.456 140.373 205.54 135.209C209.389 134.592 213.015 137.207 213.637 141.061C214.259 144.91 211.639 148.536 207.785 149.158C187.011 152.499 172.265 162.542 163.955 179.006C157.571 191.654 157.433 203.629 157.433 203.748C157.433 207.649 154.277 210.8 150.376 210.805H150.367L150.371 210.81Z" fill="#79FFB7"/>
</g>
<defs>
<clipPath id="clip0_536_336">
<rect width="437.254" height="455.08" fill="white" transform="translate(0.708008 0.951172)"/>
</clipPath>
</defs>
</svg>
