<?xml version="1.0" encoding="UTF-8"?>
<svg id="Layer_1" data-name="Layer 1" xmlns="http://www.w3.org/2000/svg" viewBox="0 0 1190.55 841.89">
  <defs>
    <style>
      .cls-1 {
        stroke-width: 0px;
      }
    </style>
  </defs>
  <path class="cls-1" d="m311.6,351.68c-4.25,61.57-7.7,65.01-69.26,69.26,61.57,4.25,65.01,7.7,69.26,69.26,4.25-61.57,7.7-65.01,69.26-69.26-61.57-4.25-65.01-7.7-69.26-69.26Z"/>
  <polygon class="cls-1" points="393.23 459.25 455.45 459.25 455.45 447.99 405.77 447.99 405.77 425.7 453.71 425.7 453.71 414.56 405.77 414.56 405.77 392.74 455.45 392.74 455.45 381.48 393.23 381.48 393.23 459.25"/>
  <path class="cls-1" d="m509.83,430.12c0,6.27-1.49,11.01-4.47,14.22-2.98,3.21-7.68,4.82-14.1,4.82s-10.51-1.37-13.17-4.12c-2.67-2.75-4-6.79-4-12.13v-31.34h-12.42v34.71c0,4.49.89,8.55,2.67,12.19,1.78,3.64,4.45,6.54,8.01,8.71,3.56,2.17,8.05,3.25,13.46,3.25,5.03,0,9.23-.93,12.59-2.79,3.37-1.86,6.02-4.22,7.95-7.08,1.93-2.86,3.17-5.92,3.72-9.17h.81v17.87h11.49v-57.69h-12.54v28.55Z"/>
  <path class="cls-1" d="m575.45,403.42c-4.49-2.01-9.63-3.02-15.44-3.02-6.35,0-11.88,1.26-16.6,3.77-4.72,2.52-8.38,6.02-10.97,10.5-2.59,4.49-3.89,9.75-3.89,15.79s1.29,11.08,3.89,15.61c2.59,4.53,6.25,8.05,10.97,10.56,4.72,2.52,10.25,3.77,16.6,3.77,5.8,0,10.95-1.01,15.44-3.02,4.49-2.01,8.03-4.83,10.62-8.47,2.59-3.64,3.89-7.85,3.89-12.65v-1.28h-12.42v.81c0,4.49-1.55,7.83-4.64,10.04-3.1,2.21-7.47,3.31-13.12,3.31-6.5,0-11.26-1.57-14.28-4.7-3.02-3.13-4.53-7.8-4.53-13.99s1.51-10.97,4.53-14.1c3.02-3.13,7.78-4.7,14.28-4.7,5.65,0,10.02,1.1,13.12,3.31,3.09,2.21,4.64,5.55,4.64,10.04v.7h12.42v-1.16c0-4.87-1.3-9.11-3.89-12.71-2.59-3.6-6.13-6.4-10.62-8.42Z"/>
  <rect class="cls-1" x="596.16" y="381.48" width="12.54" height="77.77"/>
  <rect class="cls-1" x="614.91" y="381.48" width="12.54" height="13.35"/>
  <rect class="cls-1" x="614.91" y="401.56" width="12.54" height="57.69"/>
  <path class="cls-1" d="m685.74,417.23h-.7c-1.16-4.88-3.71-8.9-7.66-12.07-3.95-3.17-9.33-4.76-16.13-4.76-5.8,0-10.76,1.26-14.86,3.77-4.1,2.52-7.24,6.02-9.4,10.5-2.17,4.49-3.25,9.75-3.25,15.79s1.08,11.08,3.25,15.61c2.17,4.53,5.36,8.05,9.58,10.56,4.22,2.52,9.38,3.77,15.5,3.77,6.5,0,11.82-1.53,15.96-4.58,4.14-3.06,6.79-7.45,7.95-13.17h.81v16.6h11.49v-77.77h-12.54v35.75Zm0,13.81c0,3.95-.79,7.27-2.38,9.98-1.59,2.71-3.87,4.7-6.85,5.98-2.98,1.28-6.52,1.91-10.62,1.91s-7.62-.58-10.56-1.74c-2.94-1.16-5.17-3.09-6.67-5.8-1.51-2.71-2.26-6.34-2.26-10.91s.75-8.32,2.26-11.03c1.51-2.71,3.73-4.66,6.67-5.86,2.94-1.2,6.38-1.8,10.33-1.8,6.42,0,11.37,1.53,14.86,4.58,3.48,3.06,5.22,7.64,5.22,13.75v.93Z"/>
  <g>
    <polygon class="cls-1" points="931.15 392.81 932.24 392.81 932.24 382.4 936.19 382.4 936.19 381.48 927.2 381.48 927.2 382.4 931.15 382.4 931.15 392.81"/>
    <polygon class="cls-1" points="946.62 381.48 942.72 391.41 938.81 381.48 937.22 381.48 937.22 392.81 938.3 392.81 938.3 383.02 938.32 383.02 942.21 392.81 943.23 392.81 947.1 383.02 947.13 383.02 947.13 392.81 948.22 392.81 948.22 381.48 946.62 381.48"/>
  </g>
  <path class="cls-1" d="m744.39,418.24l-18.11-4.48c-6.14-1.35-11.24-4.37-11.24-11.34,0-11.03,8.95-14.78,18.63-14.78,10.31,0,19.25,5.5,20.23,16.14h7.12c-.51-14.68-12.99-22.17-27.46-22.17-20.92,0-25.61,13.63-25.61,20.92,0,11.65,8.02,15.72,16.76,17.9l16.55,4.06c6.98,1.67,15.31,5,15.31,13.43,0,10.83-11.87,15.09-19.67,15.09-13.64,0-24.56-4.68-24.25-19.98h-7.08c-.84,18.11,12.07,26.02,29.66,26.02,26.33,0,28.41-16.14,28.41-21.23,0-12.07-8.74-16.76-19.25-19.57Z"/>
  <path class="cls-1" d="m767.25,403.77h6.97l13.74,46h.21l13.11-46h7.39l13.11,46h.21l13.74-46h6.97l-17.28,53.71h-7.18l-13.22-45.17h-.21l-13.11,45.17h-7.18l-17.28-53.71Z"/>
  <path class="cls-1" d="m924.07,402.21c-8.74,0-16.13,4.37-19.15,11.76h-.21v-10.2h-11.93v6.04h5.89v67.55h6.56v-30.08h.21c2.81,7.81,10.72,11.76,18.63,11.76,16.34,0,24.15-13.11,24.15-28.41s-7.81-28.41-24.15-28.41Zm0,51.31c-13.84,0-18.84-11.76-18.84-22.9,0-12.18,4.27-22.9,18.84-22.9,12.49,0,17.59,11.76,17.59,22.9s-5.1,22.9-17.59,22.9Z"/>
  <path class="cls-1" d="m886.53,451.44v-31.95c0-14.47-10.3-17.28-19.77-17.28-12.38,0-21.03,5.41-21.76,18.01h6.56c.31-8.75,6.14-12.49,14.36-12.49s14.05,2.18,14.05,11.03c0,5.83-3.02,6.76-8.43,7.29-14.16,1.67-28.83,2.29-28.83,17.28,0,10.83,8.02,15.72,18.01,15.72s14.89-3.96,19.57-10.93h.21v9.37h11.97v-6.04h-5.93Zm-6.56-14.78c0,10.51-8.63,16.87-18.74,16.87-6.24,0-11.97-4.06-11.97-10.62,0-10.41,13.85-10.41,24.98-12.38,1.77-.31,4.68-.83,5.52-2.4h.21v8.54Z"/>
</svg>