<?xml version="1.0" encoding="UTF-8"?>
<svg id="Layer_1" data-name="Layer 1" xmlns="http://www.w3.org/2000/svg" viewBox="0 0 1190.55 841.89">
  <defs>
    <style>
      .cls-1 {
        stroke-width: 0px;
      }
    </style>
  </defs>
  <path class="cls-1" d="m398.21,420.94c-117.73,8.13-124.32,14.72-132.45,132.45-8.13-117.73-14.72-124.32-132.45-132.45,117.73-8.13,124.32-14.72,132.45-132.45,8.13,117.73,14.72,124.32,132.45,132.45Z"/>
  <g>
    <polygon class="cls-1" points="421.87 494.2 540.84 494.2 540.84 472.66 445.84 472.66 445.84 430.04 537.52 430.04 537.52 408.74 445.84 408.74 445.84 367.01 540.84 367.01 540.84 345.48 421.87 345.48 421.87 494.2"/>
    <path class="cls-1" d="m644.83,438.48c0,11.99-2.85,21.05-8.55,27.19-5.7,6.14-14.69,9.21-26.97,9.21s-20.09-2.63-25.19-7.88c-5.1-5.25-7.66-12.98-7.66-23.19v-59.93h-23.75v66.37c0,8.58,1.7,16.35,5.11,23.31,3.4,6.96,8.51,12.51,15.32,16.65,6.8,4.14,15.39,6.21,25.75,6.21,9.62,0,17.65-1.78,24.08-5.33,6.44-3.55,11.5-8.06,15.2-13.54,3.7-5.47,6.07-11.32,7.1-17.53h1.55v34.18h21.97v-110.31h-23.97v54.6Z"/>
    <path class="cls-1" d="m770.32,387.43c-8.58-3.85-18.42-5.77-29.52-5.77-12.14,0-22.72,2.41-31.74,7.21-9.03,4.81-16.02,11.51-20.98,20.09-4.96,8.58-7.44,18.65-7.44,30.19s2.48,21.2,7.44,29.85c4.96,8.66,11.95,15.39,20.98,20.2,9.02,4.81,19.6,7.21,31.74,7.21,11.1,0,20.94-1.92,29.52-5.77,8.58-3.85,15.35-9.25,20.31-16.2,4.96-6.95,7.44-15.02,7.44-24.19v-2.44h-23.75v1.55c0,8.58-2.96,14.98-8.88,19.2-5.92,4.22-14.28,6.33-25.08,6.33-12.43,0-21.53-3-27.3-8.99-5.77-5.99-8.66-14.91-8.66-26.75s2.89-20.98,8.66-26.97c5.77-5.99,14.87-8.99,27.3-8.99,10.8,0,19.16,2.11,25.08,6.33,5.92,4.22,8.88,10.62,8.88,19.2v1.33h23.75v-2.22c0-9.32-2.48-17.42-7.44-24.3-4.96-6.88-11.73-12.24-20.31-16.09Z"/>
    <rect class="cls-1" x="809.93" y="345.48" width="23.97" height="148.71"/>
    <rect class="cls-1" x="845.78" y="345.48" width="23.97" height="25.53"/>
    <rect class="cls-1" x="845.78" y="383.88" width="23.97" height="110.31"/>
    <path class="cls-1" d="m981.21,413.84h-1.33c-2.22-9.32-7.1-17.01-14.65-23.08-7.55-6.07-17.83-9.1-30.85-9.1-11.1,0-20.57,2.41-28.41,7.21-7.85,4.81-13.84,11.51-17.98,20.09-4.14,8.58-6.21,18.65-6.21,30.19s2.07,21.2,6.21,29.85c4.14,8.66,10.25,15.39,18.31,20.2,8.06,4.81,17.94,7.21,29.63,7.21,12.43,0,22.6-2.92,30.52-8.77,7.91-5.84,12.98-14.24,15.2-25.19h1.55v31.74h21.97v-148.71h-23.97v68.36Zm-17.65,56.93c-5.7,2.44-12.47,3.66-20.31,3.66s-14.58-1.11-20.2-3.33c-5.63-2.22-9.88-5.92-12.76-11.1-2.89-5.18-4.33-12.13-4.33-20.86s1.44-15.91,4.33-21.09c2.88-5.18,7.14-8.91,12.76-11.21,5.62-2.29,12.21-3.44,19.75-3.44,12.28,0,21.75,2.92,28.41,8.77,6.66,5.85,9.99,14.61,9.99,26.3v1.78c0,7.55-1.52,13.91-4.55,19.09-3.03,5.18-7.4,8.99-13.1,11.43Z"/>
    <polygon class="cls-1" points="1017.06 347.23 1024.61 347.23 1024.61 367.13 1026.68 367.13 1026.68 347.23 1034.23 347.23 1034.23 345.48 1017.06 345.48 1017.06 347.23"/>
    <polygon class="cls-1" points="1054.19 345.48 1046.73 364.48 1039.24 345.48 1036.21 345.48 1036.21 367.13 1038.27 367.13 1038.27 348.43 1038.32 348.43 1045.75 367.13 1047.7 367.13 1055.11 348.43 1055.16 348.43 1055.16 367.13 1057.24 367.13 1057.24 345.48 1054.19 345.48"/>
  </g>
</svg>