<svg width="660" height="618" viewBox="0 0 660 618" fill="none" xmlns="http://www.w3.org/2000/svg">
<g clip-path="url(#clip0_514_363)">
<path fill-rule="evenodd" clip-rule="evenodd" d="M173.88 477.067L87.8535 315.424L153.204 176.757L218.887 95.5268L412.926 87.9858L485.871 132.999L552.298 252.439L556.012 353.999L485.871 484.162L412.926 536.83L298.13 529.289L215.206 536.83L173.88 477.067Z" fill="#79FFB7"/>
<path fill-rule="evenodd" clip-rule="evenodd" d="M263.721 197.606L202.589 312.408L266.85 418.646L395.612 423.469L457.348 305.923L392.715 193.925L263.721 197.606Z" fill="white"/>
<path fill-rule="evenodd" clip-rule="evenodd" d="M210.874 174.152L139.351 126.143V47.9957L209.319 12.0249L282.49 52.3143V135.571L210.874 174.152Z" fill="white"/>
<path fill-rule="evenodd" clip-rule="evenodd" d="M84.1992 386.987L12.6763 338.978V260.831L82.6445 224.86L155.809 265.149V348.406L84.1992 386.987Z" fill="white"/>
<path fill-rule="evenodd" clip-rule="evenodd" d="M457.381 179.853L385.858 144.433V53.6959L455.826 17.7251L528.99 58.0145V141.271L457.381 179.853Z" fill="white"/>
<path fill-rule="evenodd" clip-rule="evenodd" d="M577.697 396.501L506.181 361.081V270.344L576.143 234.373L649.313 274.662V357.925L577.697 396.501Z" fill="white"/>
<path fill-rule="evenodd" clip-rule="evenodd" d="M449.089 602.811L377.566 567.398V476.654L447.535 440.684L520.705 480.98V564.236L449.089 602.811Z" fill="white"/>
<path fill-rule="evenodd" clip-rule="evenodd" d="M202.536 601.675L131.02 566.263V475.519L200.988 439.548L274.152 479.844V563.1L202.536 601.675Z" fill="white"/>
<path fill-rule="evenodd" clip-rule="evenodd" d="M402.116 52.387L457.341 79.5545L512.586 52.387L457.341 25.0668L402.116 52.387ZM457.341 95.5267C456.145 95.5267 455.109 95.2211 454.066 94.7892L381.805 59.1174C379.267 57.9215 377.62 55.2307 377.62 52.3937C377.62 49.5567 379.267 46.8592 381.805 45.6699L454.066 9.99815C456.152 8.95504 458.69 8.95504 460.79 9.99815L533.05 45.6699C535.588 47.012 537.236 49.5567 537.236 52.3937C537.236 55.2307 535.588 57.9282 533.05 59.1174L460.79 94.7892C459.594 95.241 458.537 95.5267 457.341 95.5267Z" fill="black"/>
<path fill-rule="evenodd" clip-rule="evenodd" d="M457.341 188.988C456.145 188.988 454.956 188.682 453.76 188.098L381.5 150.167C378.962 148.825 377.467 146.28 377.467 143.443V52.3868C377.467 48.2011 380.895 44.9189 385.081 44.9189C389.267 44.9189 392.695 48.3473 392.695 52.533V139.118L449.873 169.129V88.0586C449.873 83.8729 453.302 80.4446 457.487 80.4446C461.673 80.4446 465.101 83.8729 465.101 88.0586V181.52C465.101 184.211 463.759 186.596 461.52 187.945C460.025 188.549 458.677 188.988 457.335 188.988H457.341Z" fill="black"/>
<path fill-rule="evenodd" clip-rule="evenodd" d="M457.341 188.988C454.65 188.988 451.96 187.493 450.617 184.955C448.684 181.221 450.013 176.75 453.747 174.803L521.968 138.673V52.3868C521.968 48.2011 525.396 44.9189 529.436 44.9189C533.475 44.9189 537.05 48.3473 537.05 52.533V143.151C537.05 145.995 535.555 148.533 533.017 149.875L460.949 188.091C459.753 188.676 458.544 188.981 457.348 188.981L457.341 188.988Z" fill="black"/>
<path fill-rule="evenodd" clip-rule="evenodd" d="M148.015 56.5724L144.128 117.937L195.34 83.7398L199.373 22.3756L148.008 56.5724H148.015ZM135.624 140.314C134.282 140.314 133.086 140.008 131.89 139.271C129.352 137.776 128.003 135.085 128.156 132.261L133.232 51.9481C133.385 49.5629 134.574 47.4767 136.507 46.1346L203.546 1.34724C205.931 -0.30048 209.08 -0.30048 211.465 1.04161C214.003 2.53652 215.352 5.22735 215.199 8.05106L209.97 88.364C209.817 90.7493 208.628 92.8355 206.695 94.1776L139.816 138.965C138.474 139.875 137.125 140.307 135.63 140.307L135.624 140.314Z" fill="black"/>
<path fill-rule="evenodd" clip-rule="evenodd" d="M214.455 185.713C213.113 185.713 211.917 185.407 210.721 184.669L131.89 139.145C128.309 137.058 126.966 132.421 129.046 128.84C131.126 125.259 135.77 124.063 139.351 126.149L214.149 169.289L268.637 134.806L198.616 94.3572C195.035 92.271 193.839 87.6335 195.772 84.0523C197.858 80.4712 202.496 79.2753 206.077 81.2087L286.842 127.797C289.074 129.139 290.576 131.531 290.576 134.221C290.576 136.912 289.234 139.297 286.994 140.792L218.016 184.384C217.146 185.407 215.797 185.713 214.455 185.713Z" fill="black"/>
<path fill-rule="evenodd" clip-rule="evenodd" d="M283.268 142.115H282.962C278.776 141.962 275.494 138.534 275.647 134.348L278.49 57.1642L203.845 14.1774C200.264 12.0911 199.068 7.45361 201.001 3.87248C203.087 0.291346 207.725 -0.904578 211.306 1.18165L289.838 46.5537C292.224 47.8958 293.725 50.5866 293.572 53.4103L290.576 135.065C290.729 138.965 287.3 142.115 283.261 142.115H283.268Z" fill="black"/>
<path fill-rule="evenodd" clip-rule="evenodd" d="M20.6756 340.08L71.8877 374.277L68.001 312.893L16.7888 278.696L20.6756 340.08ZM80.3921 396.501C78.8972 396.501 77.3956 396.049 76.2063 395.159L9.32758 350.372C7.39417 349.029 6.19825 346.943 6.05208 344.558L0.823229 264.238C0.670416 261.395 2.01915 258.704 4.55717 257.229C7.09519 255.734 10.0916 255.887 12.4768 257.535L79.4885 302.302C81.4219 303.644 82.6178 305.73 82.764 308.116L87.84 388.429C87.9928 391.272 86.4979 393.963 84.1061 395.438C82.9301 396.195 81.7408 396.501 80.3921 396.501Z" fill="black"/>
<path fill-rule="evenodd" clip-rule="evenodd" d="M80.392 396.501C77.7012 396.501 75.316 395.159 73.8211 392.767C71.7348 389.186 72.9308 384.562 76.6647 382.462L151.616 339.322L149.058 274.829L79.0366 315.278C75.4555 317.364 70.8313 316.168 68.7317 312.587C66.6455 309.006 67.8414 304.381 71.5754 302.282L152.34 255.694C154.573 254.352 157.416 254.352 159.808 255.694C162.2 257.036 163.542 259.428 163.695 261.966L166.97 343.468C167.123 346.312 165.628 348.85 163.236 350.325L84.1193 395.564C82.9433 396.189 81.754 396.494 80.4053 396.494L80.392 396.501Z" fill="black"/>
<path fill-rule="evenodd" clip-rule="evenodd" d="M8.13833 271.4C5.60031 271.4 3.06229 270.058 1.56739 267.666C-0.518836 264.085 0.677089 259.461 4.25822 257.361L82.9368 211.989C85.322 210.647 88.3184 210.647 90.7036 212.142L160.12 255.587C163.702 257.82 164.745 262.444 162.506 266.045C160.273 269.626 155.649 270.669 152.048 268.43L86.5179 227.377L11.8723 270.364C10.8292 271.101 9.48707 271.407 8.13833 271.407V271.4Z" fill="black"/>
<path fill-rule="evenodd" clip-rule="evenodd" d="M147.271 564.907L202.516 592.227L257.761 564.907L202.516 537.74L147.271 564.907ZM202.503 608.2C201.307 608.2 200.271 607.894 199.227 607.462L126.967 571.79C124.429 570.448 122.781 567.904 122.781 565.067C122.781 562.23 124.429 559.532 126.967 558.343L199.227 522.671C201.314 521.628 203.852 521.628 205.951 522.671L278.212 558.343C280.75 559.685 282.397 562.23 282.397 565.067C282.397 567.904 280.75 570.601 278.212 571.79L205.951 607.462C204.755 607.901 203.699 608.2 202.503 608.2Z" fill="black"/>
<path fill-rule="evenodd" clip-rule="evenodd" d="M274.757 572.528C270.571 572.528 267.142 569.099 267.142 564.914V478.329L209.964 448.318V529.235C209.964 533.421 206.536 536.849 202.35 536.849C198.164 536.849 194.736 533.421 194.736 529.235V435.774C194.736 433.083 196.078 430.698 198.317 429.349C200.549 428.007 203.393 427.854 205.785 429.196L278.045 467.127C280.583 468.469 282.078 471.014 282.078 473.851V564.92C282.231 569.066 278.949 572.514 274.763 572.514L274.757 572.528Z" fill="black"/>
<path fill-rule="evenodd" clip-rule="evenodd" d="M130.262 572.528C126.076 572.528 122.648 569.1 122.648 564.914V474.296C122.648 471.452 124.143 468.914 126.681 467.572L198.941 429.21C202.675 427.276 207.147 428.605 209.093 432.339C211.027 436.073 209.698 440.544 205.964 442.491L137.723 478.621V564.768C137.856 569.086 134.428 572.535 130.255 572.535L130.262 572.528Z" fill="black"/>
<path fill-rule="evenodd" clip-rule="evenodd" d="M464.669 533.554L460.636 594.918L511.848 560.722L515.735 499.357L464.676 533.554H464.669ZM452.132 617.315C450.79 617.315 449.594 617.01 448.398 616.272C445.86 614.777 444.511 612.087 444.664 609.263L449.893 528.95C450.046 526.565 451.235 524.478 453.168 523.136L520.047 478.349C522.432 476.701 525.582 476.701 527.967 478.043C530.505 479.538 531.854 482.229 531.701 485.053L526.625 565.366C526.472 567.751 525.283 569.837 523.349 571.179L456.318 615.967C454.956 616.857 453.474 617.309 452.132 617.309V617.315Z" fill="black"/>
<path fill-rule="evenodd" clip-rule="evenodd" d="M457.341 536.829C455.999 536.829 454.803 536.524 453.607 535.786L372.842 489.218C370.61 487.876 369.108 485.484 369.108 482.793C369.108 480.103 370.451 477.717 372.69 476.222L441.668 432.631C444.053 431.136 447.049 431.136 449.435 432.478L528.266 478.003C531.847 480.089 533.043 484.727 530.957 488.308C528.871 491.889 524.233 493.085 520.652 490.999L445.701 447.859L391.213 482.342L461.234 522.79C464.816 524.877 466.012 529.514 463.925 533.095C462.563 535.481 460.025 536.829 457.334 536.829H457.341Z" fill="black"/>
<path fill-rule="evenodd" clip-rule="evenodd" d="M452.132 617.315C450.79 617.315 449.594 617.01 448.398 616.272L369.866 570.9C367.48 569.558 365.979 566.867 366.132 564.044L369.128 482.389C369.281 478.203 372.709 474.921 376.895 475.073C381.081 475.226 384.363 478.655 384.21 482.84L381.367 560.024L456.012 603.011C459.593 605.097 460.789 609.735 458.703 613.316C457.208 615.814 454.67 617.315 452.132 617.315Z" fill="black"/>
<path fill-rule="evenodd" clip-rule="evenodd" d="M592.009 304.388L643.221 338.585L639.188 277.22L587.976 243.024L592.009 304.388ZM651.725 360.975C650.23 360.975 648.729 360.523 647.539 359.779L580.508 314.992C578.574 313.65 577.378 311.563 577.232 309.178L572.156 228.865C572.003 226.021 573.498 223.331 575.89 221.856C578.428 220.361 581.425 220.514 583.81 222.161L650.689 266.949C652.622 268.291 653.818 270.377 653.964 272.762L659.193 353.075C659.346 355.919 657.851 358.61 655.459 360.085C654.263 360.669 653.074 360.975 651.725 360.975Z" fill="black"/>
<path fill-rule="evenodd" clip-rule="evenodd" d="M503.776 362.756C502.58 362.756 501.238 362.451 500.195 361.866C497.81 360.524 496.461 358.132 496.308 355.594L493.033 274.092C492.88 271.248 494.375 268.71 496.767 267.235L575.731 221.71C579.312 219.624 583.936 220.82 586.036 224.554C588.122 228.135 586.926 232.759 583.192 234.859L508.241 277.998L510.779 342.492L580.8 302.043C584.381 299.957 589.006 301.153 591.105 304.887C593.191 308.468 591.995 313.092 588.262 315.192L507.497 361.78C506.454 362.484 505.111 362.763 503.763 362.763L503.776 362.756Z" fill="black"/>
<path fill-rule="evenodd" clip-rule="evenodd" d="M573.193 406.354C571.85 406.354 570.349 405.902 569.16 405.158L499.743 361.713C496.162 359.48 495.119 354.856 497.358 351.255C499.59 347.674 504.214 346.631 507.815 348.87L573.345 389.923L647.991 346.937C651.572 344.85 656.196 346.046 658.296 349.627C660.382 353.208 659.186 357.833 655.452 359.932L576.92 405.304C575.724 405.909 574.535 406.347 573.186 406.347L573.193 406.354Z" fill="black"/>
<path fill-rule="evenodd" clip-rule="evenodd" d="M161.31 465.333C158.772 465.333 156.234 463.991 154.739 461.599L104.723 374.868C102.636 371.287 103.832 366.662 107.413 364.563C110.995 362.477 115.619 363.673 117.718 367.254L167.735 453.839C169.821 457.42 168.625 462.044 165.044 464.144C163.981 465.034 162.639 465.34 161.31 465.34V465.333Z" fill="black"/>
<path fill-rule="evenodd" clip-rule="evenodd" d="M116.376 244.818C115.034 244.818 113.838 244.512 112.642 243.775C109.061 241.688 107.865 237.051 109.799 233.47L159.815 146.739C161.901 143.158 166.539 141.962 170.12 144.048C173.701 146.134 174.897 150.772 172.963 154.353L122.947 241.084C121.585 243.469 119.06 244.818 116.376 244.818Z" fill="black"/>
<path fill-rule="evenodd" clip-rule="evenodd" d="M385.1 95.5268H284.935C280.749 95.5268 277.321 92.0984 277.321 88.0589C277.321 84.0193 280.749 80.4448 284.935 80.4448H385.1C389.286 80.4448 392.714 83.8731 392.714 88.0589C392.694 92.0918 389.266 95.5268 385.1 95.5268Z" fill="black"/>
<path fill-rule="evenodd" clip-rule="evenodd" d="M548.564 253.627C546.026 253.627 543.488 252.285 541.993 249.894L491.977 163.162C489.89 159.581 491.086 154.957 494.667 152.857C498.249 150.751 502.873 151.967 504.972 155.548L554.989 242.133C557.075 245.714 555.879 250.339 552.298 252.438C551.255 253.328 549.912 253.78 548.564 253.634V253.627Z" fill="black"/>
<path fill-rule="evenodd" clip-rule="evenodd" d="M493.318 474.289C491.976 474.289 490.78 473.983 489.584 473.246C486.003 471.16 484.807 466.522 486.894 462.941L536.91 376.356C538.996 372.775 543.634 371.579 547.215 373.665C550.796 375.752 551.992 380.389 549.905 383.97L499.889 470.555C498.547 472.94 496.003 474.289 493.318 474.289Z" fill="black"/>
<path fill-rule="evenodd" clip-rule="evenodd" d="M374.796 536.829H274.63C270.444 536.829 267.016 533.401 267.016 529.361C267.016 525.322 270.444 521.747 274.63 521.747H374.796C378.981 521.747 382.41 525.176 382.41 529.361C382.41 533.547 378.961 536.829 374.796 536.829Z" fill="black"/>
<path fill-rule="evenodd" clip-rule="evenodd" d="M270.438 411.882H389.572L449.136 308.574L389.572 205.266H270.438L210.874 308.727L270.438 411.889V411.882ZM393.891 427.117H266.099C263.409 427.117 260.871 425.622 259.528 423.383L195.626 312.607C194.284 310.222 194.284 307.378 195.626 305.139L259.528 194.363C260.871 191.978 263.415 190.629 266.099 190.629H393.891C396.581 190.629 399.119 192.124 400.462 194.363L464.364 305.139C465.706 307.524 465.706 310.368 464.364 312.607L400.462 423.23C399.119 425.615 396.575 427.117 393.891 427.117Z" fill="black"/>
</g>
<defs>
<clipPath id="clip0_514_363">
<rect width="658.775" height="617.243" fill="white" transform="translate(0.537598 0.0722656)"/>
</clipPath>
</defs>
</svg>
