<svg width="475" height="445" viewBox="0 0 475 445" fill="none" xmlns="http://www.w3.org/2000/svg">
<g clip-path="url(#clip0_526_281)">
<path fill-rule="evenodd" clip-rule="evenodd" d="M125.139 343.838L63.2446 227.54L110.263 127.772L157.52 69.3291L297.126 63.9036L349.608 96.2895L397.401 182.223L400.073 255.294L349.608 348.943L297.126 386.836L214.534 381.41L154.872 386.836L125.139 343.838Z" fill="#79FFB7"/>
<path fill-rule="evenodd" clip-rule="evenodd" d="M189.777 142.772L145.794 225.37L192.028 301.805L284.669 305.276L329.087 220.704L282.585 140.124L189.777 142.772Z" fill="white"/>
<path fill-rule="evenodd" clip-rule="evenodd" d="M151.755 125.899L100.296 91.3567V35.1318L150.636 9.25171L203.281 38.2389V98.1398L151.755 125.899Z" fill="white"/>
<path fill-rule="evenodd" clip-rule="evenodd" d="M60.6158 279.028L9.15674 244.486V188.261L59.4972 162.381L112.137 191.368V251.269L60.6158 279.028Z" fill="white"/>
<path fill-rule="evenodd" clip-rule="evenodd" d="M329.111 129.999L277.652 104.516V39.2326L327.992 13.3525L380.632 42.3398V102.241L329.111 129.999Z" fill="white"/>
<path fill-rule="evenodd" clip-rule="evenodd" d="M415.676 285.872L364.222 260.389V195.106L414.557 169.226L467.202 198.213V258.118L415.676 285.872Z" fill="white"/>
<path fill-rule="evenodd" clip-rule="evenodd" d="M323.146 434.308L271.687 408.829V343.541L322.027 317.661L374.672 346.653V406.554L323.146 434.308Z" fill="white"/>
<path fill-rule="evenodd" clip-rule="evenodd" d="M145.756 433.491L94.3018 408.012V342.724L144.642 316.844L197.282 345.836V405.737L145.756 433.491Z" fill="white"/>
<path fill-rule="evenodd" clip-rule="evenodd" d="M289.35 38.2914L329.083 57.8377L368.83 38.2914L329.083 18.6351L289.35 38.2914ZM329.083 69.3293C328.222 69.3293 327.477 69.1094 326.726 68.7987L274.737 43.1337C272.911 42.2733 271.725 40.3373 271.725 38.2962C271.725 36.255 272.911 34.3142 274.737 33.4586L326.726 7.79358C328.227 7.04309 330.053 7.04309 331.564 7.79358L383.554 33.4586C385.38 34.4242 386.565 36.255 386.565 38.2962C386.565 40.3373 385.38 42.2781 383.554 43.1337L331.564 68.7987C330.703 69.1238 329.943 69.3293 329.083 69.3293Z" fill="black"/>
<path fill-rule="evenodd" clip-rule="evenodd" d="M329.083 136.572C328.222 136.572 327.366 136.353 326.506 135.932L274.516 108.642C272.69 107.676 271.615 105.845 271.615 103.804V38.2912C271.615 35.2796 274.081 32.9182 277.093 32.9182C280.104 32.9182 282.571 35.3848 282.571 38.3963V100.692L323.71 122.284V63.9562C323.71 60.9446 326.176 58.478 329.188 58.478C332.199 58.478 334.666 60.9446 334.666 63.9562V131.199C334.666 133.135 333.7 134.852 332.089 135.822C331.014 136.257 330.043 136.572 329.078 136.572H329.083Z" fill="black"/>
<path fill-rule="evenodd" clip-rule="evenodd" d="M329.082 136.572C327.146 136.572 325.21 135.497 324.245 133.671C322.854 130.984 323.81 127.767 326.496 126.367L375.58 100.372V38.2912C375.58 35.2796 378.046 32.9182 380.952 32.9182C383.859 32.9182 386.431 35.3848 386.431 38.3963V103.594C386.431 105.64 385.355 107.466 383.529 108.431L331.678 135.927C330.818 136.348 329.948 136.568 329.087 136.568L329.082 136.572Z" fill="black"/>
<path fill-rule="evenodd" clip-rule="evenodd" d="M106.529 41.3025L103.733 85.4526L140.579 60.8488L143.48 16.6987L106.525 41.3025H106.529ZM97.6143 101.552C96.6487 101.552 95.7883 101.332 94.9278 100.802C93.1018 99.7263 92.1314 97.7903 92.2413 95.7588L95.8934 37.9755C96.0034 36.2594 96.859 34.7584 98.2501 33.7928L146.482 1.56935C148.199 0.383859 150.464 0.383859 152.18 1.34946C154.007 2.42501 154.977 4.361 154.867 6.39259L151.105 64.1759C150.995 65.892 150.139 67.3929 148.748 68.3585L100.631 100.582C99.665 101.237 98.6946 101.548 97.6191 101.548L97.6143 101.552Z" fill="black"/>
<path fill-rule="evenodd" clip-rule="evenodd" d="M154.332 134.216C153.366 134.216 152.505 133.996 151.645 133.466L94.9278 100.712C92.3512 99.2108 91.3856 95.8742 92.8818 93.2976C94.378 90.7211 97.7194 89.8606 100.296 91.3616L154.112 122.4L193.314 97.5903L142.935 68.4883C140.359 66.9873 139.499 63.6507 140.89 61.0742C142.391 58.4976 145.727 57.6372 148.304 59.0282L206.412 92.5471C208.018 93.5127 209.098 95.2336 209.098 97.1696C209.098 99.1056 208.133 100.822 206.522 101.897L156.894 133.26C156.268 133.996 155.297 134.216 154.332 134.216Z" fill="black"/>
<path fill-rule="evenodd" clip-rule="evenodd" d="M203.841 102.848H203.621C200.609 102.738 198.248 100.272 198.358 97.26L200.404 41.7283L146.698 10.8003C144.121 9.29927 143.261 5.96268 144.652 3.38614C146.153 0.809601 149.49 -0.0508382 152.066 1.45015L208.568 34.0943C210.284 35.0599 211.365 36.9958 211.255 39.0274L209.099 97.7763C209.209 100.582 206.742 102.848 203.836 102.848H203.841Z" fill="black"/>
<path fill-rule="evenodd" clip-rule="evenodd" d="M14.9118 245.279L51.7577 269.883L48.9613 225.719L12.1154 201.115L14.9118 245.279ZM57.8764 285.873C56.8009 285.873 55.7205 285.548 54.8649 284.908L6.74722 252.684C5.35617 251.718 4.49573 250.217 4.39057 248.501L0.628539 190.713C0.518594 188.667 1.48898 186.731 3.31502 185.67C5.14106 184.595 7.29694 184.705 9.01304 185.89L57.2263 218.099C58.6174 219.065 59.4778 220.566 59.583 222.282L63.235 280.065C63.345 282.111 62.2694 284.047 60.5486 285.108C59.7025 285.653 58.8468 285.873 57.8764 285.873Z" fill="black"/>
<path fill-rule="evenodd" clip-rule="evenodd" d="M57.8769 285.873C55.9409 285.873 54.2248 284.908 53.1493 283.187C51.6483 280.61 52.5087 277.283 55.1952 275.773L109.121 244.735L107.28 198.333L56.9018 227.435C54.3252 228.936 50.9982 228.076 49.4876 225.499C47.9867 222.922 48.8471 219.595 51.5336 218.085L109.642 184.566C111.248 183.6 113.294 183.6 115.015 184.566C116.736 185.532 117.701 187.252 117.811 189.079L120.168 247.717C120.278 249.763 119.202 251.589 117.481 252.651L60.5586 285.199C59.7125 285.648 58.8569 285.868 57.8865 285.868L57.8769 285.873Z" fill="black"/>
<path fill-rule="evenodd" clip-rule="evenodd" d="M5.89165 195.866C4.06561 195.866 2.23957 194.901 1.16402 193.18C-0.336971 190.603 0.523468 187.276 3.10001 185.766L59.7073 153.121C61.4234 152.156 63.5793 152.156 65.2954 153.231L115.239 184.489C117.816 186.095 118.566 189.422 116.955 192.013C115.349 194.59 112.022 195.34 109.431 193.729L62.2839 164.192L8.57813 195.12C7.82764 195.651 6.86204 195.871 5.89165 195.871V195.866Z" fill="black"/>
<path fill-rule="evenodd" clip-rule="evenodd" d="M105.995 407.037L145.742 426.694L185.49 407.037L145.742 387.491L105.995 407.037ZM145.733 438.185C144.872 438.185 144.127 437.965 143.376 437.655L91.3865 411.99C89.5605 411.024 88.375 409.193 88.375 407.152C88.375 405.111 89.5605 403.17 91.3865 402.315L143.376 376.65C144.877 375.899 146.703 375.899 148.214 376.65L200.203 402.315C202.029 403.28 203.215 405.111 203.215 407.152C203.215 409.193 202.029 411.134 200.203 411.99L148.214 437.655C147.353 437.97 146.593 438.185 145.733 438.185Z" fill="black"/>
<path fill-rule="evenodd" clip-rule="evenodd" d="M197.717 412.52C194.705 412.52 192.239 410.053 192.239 407.042V344.746L151.1 323.154V381.372C151.1 384.384 148.634 386.85 145.622 386.85C142.611 386.85 140.144 384.384 140.144 381.372V314.129C140.144 312.193 141.11 310.477 142.721 309.506C144.327 308.541 146.373 308.431 148.094 309.396L200.083 336.687C201.909 337.652 202.985 339.483 202.985 341.524V407.047C203.095 410.03 200.733 412.511 197.722 412.511L197.717 412.52Z" fill="black"/>
<path fill-rule="evenodd" clip-rule="evenodd" d="M93.7569 412.52C90.7454 412.52 88.2788 410.054 88.2788 407.042V341.845C88.2788 339.799 89.3544 337.973 91.1804 337.007L143.17 309.406C145.857 308.015 149.074 308.971 150.474 311.658C151.865 314.344 150.909 317.561 148.223 318.962L99.1251 344.957V406.937C99.2207 410.044 96.7541 412.525 93.7522 412.525L93.7569 412.52Z" fill="black"/>
<path fill-rule="evenodd" clip-rule="evenodd" d="M334.355 384.479L331.453 428.629L368.299 404.026L371.096 359.876L334.36 384.479H334.355ZM325.335 444.744C324.369 444.744 323.508 444.524 322.648 443.993C320.822 442.917 319.852 440.982 319.962 438.95L323.724 381.167C323.834 379.451 324.689 377.95 326.08 376.984L374.198 344.761C375.914 343.575 378.18 343.575 379.896 344.541C381.722 345.616 382.692 347.552 382.582 349.584L378.93 407.367C378.82 409.083 377.965 410.584 376.574 411.55L328.346 443.773C327.366 444.414 326.3 444.739 325.335 444.739V444.744Z" fill="black"/>
<path fill-rule="evenodd" clip-rule="evenodd" d="M329.082 386.836C328.117 386.836 327.256 386.616 326.396 386.085L268.288 352.581C266.681 351.615 265.601 349.894 265.601 347.958C265.601 346.022 266.567 344.306 268.178 343.231L317.806 311.868C319.522 310.792 321.678 310.792 323.394 311.758L380.111 344.512C382.688 346.013 383.548 349.349 382.047 351.926C380.546 354.502 377.21 355.363 374.633 353.862L320.707 322.824L281.505 347.633L331.884 376.735C334.46 378.236 335.321 381.573 333.82 384.149C332.84 385.865 331.014 386.836 329.078 386.836H329.082Z" fill="black"/>
<path fill-rule="evenodd" clip-rule="evenodd" d="M325.334 444.744C324.369 444.744 323.508 444.524 322.648 443.993L266.146 411.349C264.43 410.384 263.349 408.448 263.459 406.416L265.615 347.667C265.725 344.656 268.192 342.294 271.203 342.404C274.215 342.514 276.576 344.981 276.466 347.992L274.42 403.524L328.126 434.452C330.703 435.953 331.563 439.29 330.062 441.866C328.987 443.663 327.161 444.744 325.334 444.744Z" fill="black"/>
<path fill-rule="evenodd" clip-rule="evenodd" d="M425.973 219.6L462.819 244.204L459.917 200.054L423.071 175.45L425.973 219.6ZM468.937 260.313C467.862 260.313 466.781 259.988 465.926 259.453L417.698 227.229C416.307 226.263 415.447 224.762 415.341 223.046L411.689 165.263C411.579 163.217 412.655 161.281 414.376 160.22C416.202 159.144 418.358 159.254 420.074 160.44L468.192 192.663C469.583 193.629 470.443 195.13 470.548 196.846L474.31 254.629C474.42 256.675 473.345 258.611 471.624 259.672C470.763 260.093 469.908 260.313 468.937 260.313Z" fill="black"/>
<path fill-rule="evenodd" clip-rule="evenodd" d="M362.491 261.595C361.631 261.595 360.665 261.375 359.915 260.954C358.199 259.988 357.228 258.268 357.118 256.441L354.762 197.803C354.652 195.757 355.727 193.931 357.448 192.869L414.261 160.115C416.837 158.614 420.165 159.475 421.675 162.161C423.176 164.738 422.316 168.065 419.629 169.575L365.704 200.613L367.53 247.015L417.908 217.913C420.485 216.412 423.812 217.272 425.322 219.959C426.823 222.535 425.963 225.862 423.276 227.373L365.168 260.892C364.418 261.399 363.452 261.599 362.482 261.599L362.491 261.595Z" fill="black"/>
<path fill-rule="evenodd" clip-rule="evenodd" d="M412.435 292.962C411.469 292.962 410.389 292.637 409.533 292.102L359.589 260.844C357.013 259.238 356.262 255.911 357.873 253.32C359.479 250.743 362.806 249.993 365.397 251.604L412.545 281.141L466.25 250.213C468.827 248.712 472.154 249.572 473.664 252.149C475.165 254.725 474.305 258.052 471.618 259.563L415.116 292.207C414.256 292.642 413.4 292.958 412.43 292.958L412.435 292.962Z" fill="black"/>
<path fill-rule="evenodd" clip-rule="evenodd" d="M116.095 335.396C114.269 335.396 112.443 334.43 111.367 332.71L75.3818 270.309C73.8808 267.732 74.7412 264.405 77.3178 262.894C79.8943 261.393 83.2213 262.254 84.7319 264.83L120.717 327.126C122.218 329.703 121.358 333.03 118.781 334.54C118.017 335.181 117.051 335.401 116.095 335.401V335.396Z" fill="black"/>
<path fill-rule="evenodd" clip-rule="evenodd" d="M83.7663 176.741C82.8007 176.741 81.9402 176.521 81.0798 175.99C78.5033 174.489 77.6428 171.152 79.0339 168.576L115.019 106.175C116.52 103.598 119.857 102.738 122.433 104.239C125.01 105.74 125.87 109.077 124.479 111.653L88.4939 174.054C87.514 175.77 85.6975 176.741 83.7663 176.741Z" fill="black"/>
<path fill-rule="evenodd" clip-rule="evenodd" d="M277.107 69.3296H205.04C202.029 69.3296 199.562 66.863 199.562 63.9566C199.562 61.0503 202.029 58.4785 205.04 58.4785H277.107C280.118 58.4785 282.585 60.9451 282.585 63.9566C282.57 66.8582 280.104 69.3296 277.107 69.3296Z" fill="black"/>
<path fill-rule="evenodd" clip-rule="evenodd" d="M394.715 183.079C392.889 183.079 391.062 182.113 389.987 180.392L354.001 117.991C352.5 115.415 353.361 112.088 355.937 110.577C358.514 109.062 361.841 109.937 363.352 112.513L399.337 174.809C400.838 177.386 399.978 180.713 397.401 182.223C396.651 182.864 395.685 183.189 394.715 183.084V183.079Z" fill="black"/>
<path fill-rule="evenodd" clip-rule="evenodd" d="M354.967 341.84C354.002 341.84 353.141 341.62 352.281 341.089C349.704 339.588 348.844 336.252 350.345 333.675L386.33 271.379C387.831 268.803 391.168 267.942 393.744 269.443C396.321 270.944 397.181 274.281 395.68 276.857L359.695 339.153C358.729 340.869 356.898 341.84 354.967 341.84Z" fill="black"/>
<path fill-rule="evenodd" clip-rule="evenodd" d="M269.693 386.836H197.627C194.615 386.836 192.148 384.369 192.148 381.463C192.148 378.556 194.615 375.985 197.627 375.985H269.693C272.705 375.985 275.171 378.451 275.171 381.463C275.171 384.474 272.69 386.836 269.693 386.836Z" fill="black"/>
<path fill-rule="evenodd" clip-rule="evenodd" d="M194.61 296.939H280.325L323.179 222.612L280.325 148.284H194.61L151.756 222.722L194.61 296.944V296.939ZM283.432 307.9H191.489C189.553 307.9 187.727 306.825 186.761 305.214L140.785 225.513C139.82 223.797 139.82 221.751 140.785 220.14L186.761 140.44C187.727 138.724 189.558 137.753 191.489 137.753H283.432C285.368 137.753 287.194 138.829 288.159 140.44L334.135 220.14C335.101 221.857 335.101 223.902 334.135 225.513L288.159 305.104C287.194 306.82 285.363 307.9 283.432 307.9Z" fill="black"/>
</g>
<defs>
<clipPath id="clip0_526_281">
<rect width="473.973" height="444.092" fill="white" transform="translate(0.422852 0.651611)"/>
</clipPath>
</defs>
</svg>
