<svg width="344" height="473" viewBox="0 0 344 473" fill="none" xmlns="http://www.w3.org/2000/svg">
<g clip-path="url(#clip0_526_321)">
<path d="M273.573 407.048H5.58984V171.024H35.8222V109.128C35.8222 52.174 82.1637 5.83252 139.117 5.83252C166.256 5.83252 191.905 16.3153 211.346 35.3382C230.757 54.3396 241.787 79.6939 242.398 106.746L242.499 111.164H199.366L199.222 106.998C198.093 74.4705 171.695 48.9867 139.11 48.9867C106.525 48.9867 78.962 75.967 78.962 109.135V171.031H273.566V407.056L273.573 407.048ZM14.2236 398.415H264.939V179.658H70.3355V109.128C70.3355 71.2041 101.194 40.3458 139.117 40.3458C157.04 40.3458 174.019 47.224 186.927 59.7141C198.798 71.1969 206.043 86.2699 207.583 102.53H233.563C230.131 53.5841 188.661 14.4662 139.117 14.4662C86.9194 14.4662 44.4559 56.9297 44.4559 109.128V179.658H14.2236V398.415Z" fill="black" stroke="black" stroke-width="10.0727" stroke-linejoin="round"/>
<path d="M74.6521 175.341V109.127C74.6521 73.5782 103.568 44.6624 139.117 44.6624C174.666 44.6624 202.345 72.3407 203.539 106.847H238.081C236.858 53.3177 192.934 10.1492 139.117 10.1492C85.3004 10.1492 40.1389 54.5552 40.1389 109.127V175.341H9.90649V402.731H269.256V175.341H74.6521Z" fill="#79FFB7"/>
<path d="M339.606 383.859C339.606 430.572 301.738 468.44 255.025 468.44C208.312 468.44 170.444 430.572 170.444 383.859C170.444 337.147 208.312 299.278 255.025 299.278C301.738 299.278 339.606 337.147 339.606 383.859Z" fill="white" stroke="black" stroke-width="8.60616"/>
<path d="M211.036 378.989L243.607 411.559L299.013 356.152" stroke="black" stroke-width="17.9869" stroke-miterlimit="10"/>
</g>
<defs>
<clipPath id="clip0_526_321">
<rect width="343.356" height="471.948" fill="white" transform="translate(0.553467 0.795898)"/>
</clipPath>
</defs>
</svg>
