<svg width="400" height="549" viewBox="0 0 400 549" fill="none" xmlns="http://www.w3.org/2000/svg">
<g clip-path="url(#clip0_524_278)">
<path d="M317.856 472.329H6.47095V198.079H41.5997V126.158C41.5997 59.9802 95.4466 6.1333 161.624 6.1333C193.158 6.1333 222.962 18.3138 245.551 40.4177C268.106 62.4965 280.922 91.9572 281.632 123.391L281.749 128.524H231.631L231.464 123.683C230.151 85.8878 199.479 56.2767 161.616 56.2767C123.754 56.2767 91.7264 87.6267 91.7264 126.166V198.088H317.848V472.338L317.856 472.329ZM16.503 462.297H307.824V208.111H81.7027V126.158C81.7027 82.0924 117.559 46.2363 161.624 46.2363C182.449 46.2363 202.179 54.2285 217.177 68.7414C230.971 82.084 239.389 99.5983 241.178 118.492H271.366C267.379 61.6187 219.191 16.1653 161.624 16.1653C100.973 16.1653 51.6317 65.5061 51.6317 126.158V208.111H16.503V462.297Z" fill="black" stroke="black" stroke-width="11.704" stroke-linejoin="round"/>
<path d="M86.7186 203.095V126.158C86.7186 84.8513 120.317 51.2524 161.624 51.2524C202.931 51.2524 235.092 83.4134 236.48 123.508H276.616C275.195 61.3095 224.157 11.1494 161.624 11.1494C99.0914 11.1494 46.6156 62.7474 46.6156 126.158V203.095H11.4868V467.314H312.84V203.095H86.7186Z" fill="#79FFB7"/>
<path d="M394.584 445.385C394.584 499.664 350.583 543.665 296.304 543.665C242.026 543.665 198.025 499.664 198.025 445.385C198.025 391.107 242.026 347.106 296.304 347.106C350.583 347.106 394.584 391.107 394.584 445.385Z" fill="white" stroke="black" stroke-width="10"/>
<path d="M245.191 439.725L283.037 477.571L347.417 413.191" stroke="black" stroke-width="20.9" stroke-miterlimit="10"/>
</g>
<defs>
<clipPath id="clip0_524_278">
<rect width="398.965" height="548.383" fill="white" transform="translate(0.618896 0.28125)"/>
</clipPath>
</defs>
</svg>
